<svg xmlns="http://www.w3.org/2000/svg" viewBox="0 0 1024 1024" role="img" aria-label="Black Birth Connect logo">
  <rect width="1024" height="1024" rx="60" fill="#121216"/>
  <g fill="none" stroke-linecap="round" stroke-linejoin="round">
    <circle cx="430" cy="300" r="62" stroke="#BC6852" stroke-width="28"/>
    <circle cx="590" cy="430" r="46" stroke="#D6AE52" stroke-width="24"/>
    <path d="M338 382 C 236 531, 281 790, 501 810" stroke="#BC6852" stroke-width="28"/>
    <path d="M365 492 C 451 585, 546 603, 625 548" stroke="#BC6852" stroke-width="28"/>
    <path d="M500 520 C 679 557, 703 752, 534 800" stroke="#D6AE52" stroke-width="24"/>
    <path d="M514 610
             C 514 587, 544 578, 557 596
             C 569 578, 600 587, 600 610
             C 600 642, 557 669, 557 669
             C 557 669, 514 642, 514 610 Z" fill="#D6AE52" stroke="none"/>
  </g>
  <g fill="#7A7D96" opacity="0.38">
    <circle cx="164" cy="202" r="6"/><circle cx="278" cy="132" r="6"/><circle cx="420" cy="184" r="6"/>
    <circle cx="682" cy="146" r="6"/><circle cx="842" cy="205" r="6"/><circle cx="102" cy="411" r="6"/>
    <circle cx="246" cy="495" r="6"/><circle cx="786" cy="439" r="6"/><circle cx="905" cy="347" r="6"/>
    <circle cx="142" cy="727" r="6"/><circle cx="286" cy="850" r="6"/><circle cx="502" cy="900" r="6"/>
    <circle cx="739" cy="816" r="6"/><circle cx="879" cy="695" r="6"/>
  </g>
</svg>